<svg width="78" height="78" viewBox="0 0 78 78" fill="none" xmlns="http://www.w3.org/2000/svg">
<g filter="url(#filter0_d_8083_955)">
<circle cx="38.8942" cy="34.8942" r="34.8942" fill="url(#paint0_linear_8083_955)"/>
</g>
<path d="M55.4887 31.2867H43.2232C42.8248 31.2867 42.5017 30.9637 42.5017 30.5652V18.2998C42.5017 16.3076 40.8864 14.6923 38.8942 14.6923C36.902 14.6923 35.2867 16.3076 35.2867 18.2998V30.5652C35.2867 30.9637 34.9637 31.2867 34.5652 31.2867H22.2998C20.3076 31.2867 18.6923 32.902 18.6923 34.8942C18.6923 36.8864 20.3076 38.5017 22.2998 38.5017H34.5652C34.9637 38.5017 35.2867 38.8248 35.2867 39.2232V51.4887C35.2867 53.4809 36.902 55.0962 38.8942 55.0962C40.8864 55.0962 42.5017 53.4809 42.5017 51.4887V39.2232C42.5017 38.8248 42.8248 38.5017 43.2232 38.5017H55.4887C57.4809 38.5017 59.0961 36.8864 59.0961 34.8942C59.0961 32.902 57.4809 31.2867 55.4887 31.2867Z" fill="white"/>
<defs>
<filter id="filter0_d_8083_955" x="0" y="1.52588e-05" width="77.7885" height="77.7885" filterUnits="userSpaceOnUse" color-interpolation-filters="sRGB">
<feFlood flood-opacity="0" result="BackgroundImageFix"/>
<feColorMatrix in="SourceAlpha" type="matrix" values="0 0 0 0 0 0 0 0 0 0 0 0 0 0 0 0 0 0 127 0" result="hardAlpha"/>
<feOffset dy="4"/>
<feGaussianBlur stdDeviation="2"/>
<feComposite in2="hardAlpha" operator="out"/>
<feColorMatrix type="matrix" values="0 0 0 0 0 0 0 0 0 0 0 0 0 0 0 0 0 0 0.25 0"/>
<feBlend mode="normal" in2="BackgroundImageFix" result="effect1_dropShadow_8083_955"/>
<feBlend mode="normal" in="SourceGraphic" in2="effect1_dropShadow_8083_955" result="shape"/>
</filter>
<linearGradient id="paint0_linear_8083_955" x1="20.0473" y1="3.48944" x2="77.8983" y2="46.5528" gradientUnits="userSpaceOnUse">
<stop stop-color="#16C5E0"/>
<stop offset="1" stop-color="#8DE016"/>
</linearGradient>
</defs>
</svg>
