<svg width="35" height="35" viewBox="0 0 35 35" fill="none" xmlns="http://www.w3.org/2000/svg">
<circle cx="17.5" cy="17.5" r="17.5" fill="white"/>
<path d="M28.852 6.72898C28.656 6.53498 28.338 6.53698 28.145 6.73398L23.738 11.201C22.016 9.58598 19.453 8.06898 16.154 10.82C15.772 11.037 12.593 12.84 10.814 13.757C9.654 14.356 7.874 15.068 7.804 15.099C7.373 15.331 7.104 15.734 7.025 16.263C6.764 18 8.609 20.972 12.219 24.632C14.041 26.479 15.907 27.415 17.767 27.415C19.344 27.415 20.908 26.709 22.171 25.428C24.23 23.34 24.765 20.149 24.864 19.406C27.508 16.155 26.031 13.621 24.441 11.909L28.854 7.43598C29.048 7.23998 29.046 6.92298 28.85 6.72898H28.852ZM21.459 24.726C20.37 25.831 19.094 26.415 17.768 26.415C16.746 26.415 15.705 26.065 14.657 25.373C14.892 25.219 15.305 24.941 15.607 24.706C16.309 24.158 17.448 23.048 17.496 23.001C17.693 22.808 17.697 22.491 17.504 22.293C17.313 22.097 16.995 22.093 16.797 22.285C16.786 22.296 15.651 23.403 14.992 23.916C14.682 24.158 14.245 24.447 14.047 24.577L13.802 24.732C13.512 24.49 13.222 24.222 12.932 23.928C11.693 22.673 10.762 21.603 10.063 20.697C10.078 20.691 10.091 20.686 10.1 20.683C10.39 20.569 11.035 20.307 11.502 20.074C12.479 19.586 14.122 18.52 14.191 18.475C14.422 18.324 14.488 18.015 14.337 17.783C14.187 17.551 13.875 17.486 13.646 17.636C13.629 17.647 11.981 18.717 11.054 19.179C10.614 19.399 10.004 19.645 9.732 19.753C9.688 19.77 9.563 19.817 9.447 19.859C8.001 17.774 7.963 16.752 8.015 16.41C8.057 16.128 8.186 16.029 8.228 16.002C8.302 15.972 10.07 15.265 11.274 14.644C12.829 13.842 15.436 12.374 16.355 11.854L23.86 19.377C23.737 20.187 23.204 22.957 21.461 24.723L21.459 24.726ZM24.343 18.451L17.187 11.277C19.312 9.69898 21.136 9.99898 23.375 12.245C25.616 14.492 25.916 16.322 24.342 18.451H24.343Z" fill="#16C5DE"/>
</svg>
