<svg width="44" height="47" viewBox="0 0 44 47" fill="none" xmlns="http://www.w3.org/2000/svg">
<rect width="44" height="47" fill="#FF5050"/>
<path d="M29.786 16.758C29.685 16.734 28.172 16.386 25.945 16.118L25.093 13.661C25.034 13.492 24.89 13.367 24.713 13.334C24.642 13.32 22.929 13 21 13C19.071 13 17.358 13.321 17.286 13.334C17.11 13.368 16.966 13.492 16.907 13.662L16.055 16.118C13.829 16.386 12.315 16.734 12.213 16.758C11.943 16.82 11.776 17.089 11.839 17.358C11.893 17.589 12.099 17.745 12.326 17.745C12.363 17.745 12.401 17.741 12.439 17.732C12.449 17.73 12.705 17.671 13.154 17.584C12.955 19.261 12.769 21.87 12.769 24.322C12.769 29.628 13.634 33.512 13.671 33.675C13.711 33.851 13.843 33.993 14.017 34.044C14.148 34.083 17.285 35 20.998 35C24.711 35 27.848 34.083 27.979 34.044C28.153 33.993 28.286 33.851 28.326 33.674C28.362 33.509 29.227 29.583 29.227 24.322C29.227 21.862 29.042 19.255 28.844 17.584C29.292 17.671 29.547 17.73 29.557 17.732C29.828 17.795 30.094 17.628 30.158 17.359C30.22 17.09 30.054 16.821 29.784 16.758H29.786ZM17.756 14.269C18.309 14.181 19.606 14 21 14C22.394 14 23.689 14.18 24.245 14.269L24.845 16C23.677 15.889 22.37 15.81 21 15.81C19.63 15.81 18.324 15.888 17.155 16L17.756 14.269ZM28.23 24.323C28.23 28.666 27.611 32.158 27.413 33.164C26.563 33.385 23.933 34.001 21.001 34.001C18.069 34.001 15.437 33.385 14.588 33.164C14.39 32.165 13.772 28.7 13.772 24.323C13.772 21.772 13.986 18.973 14.188 17.4C15.779 17.136 18.289 16.811 21.001 16.811C23.713 16.811 26.227 17.136 27.816 17.4C28.024 19.013 28.23 21.748 28.23 24.323Z" fill="white"/>
<path d="M18.558 21.118C18.282 21.118 18.058 21.342 18.058 21.618V29.66C18.058 29.936 18.282 30.16 18.558 30.16C18.834 30.16 19.058 29.936 19.058 29.66V21.618C19.058 21.342 18.834 21.118 18.558 21.118Z" fill="white"/>
<path d="M23.442 30.16C23.718 30.16 23.942 29.936 23.942 29.66V21.618C23.942 21.342 23.718 21.118 23.442 21.118C23.166 21.118 22.942 21.342 22.942 21.618V29.66C22.942 29.936 23.166 30.16 23.442 30.16Z" fill="white"/>
</svg>
