<svg width="44" height="47" viewBox="0 0 44 47" fill="none" xmlns="http://www.w3.org/2000/svg">
<rect width="44" height="47" fill="#4A00E0"/>
<path d="M32.994 16.195C32.983 16.128 32.717 14.533 31.616 13.421C30.505 12.331 28.904 12.066 28.837 12.055C28.718 12.034 28.598 12.06 28.495 12.123C28.373 12.198 25.448 14.036 19.446 20.009C13.12 26.305 11.482 28.791 11.415 28.894C11.37 28.964 11.342 29.044 11.336 29.127L11.002 33.412C10.991 33.558 11.044 33.701 11.147 33.805C11.241 33.899 11.368 33.951 11.501 33.951C11.514 33.951 11.527 33.951 11.54 33.95L15.846 33.617C15.929 33.611 16.008 33.584 16.078 33.539C16.181 33.473 18.678 31.842 25.002 25.548C31.004 19.574 32.85 16.662 32.925 16.541C32.989 16.438 33.014 16.316 32.995 16.197L32.994 16.195ZM24.295 24.838C18.755 30.352 16.155 32.265 15.634 32.63L12.044 32.908L12.322 29.339C12.69 28.818 14.614 26.23 20.15 20.72C21.923 18.956 23.428 17.554 24.668 16.456C25.152 16.568 26.389 16.924 27.263 17.782C28.131 18.633 28.493 19.828 28.609 20.308C27.501 21.548 26.084 23.057 24.295 24.838ZM29.39 19.419C29.154 18.738 28.721 17.811 27.963 17.067C27.206 16.325 26.26 15.901 25.567 15.67C27.374 14.121 28.469 13.344 28.859 13.08C29.255 13.172 30.221 13.455 30.909 14.129C31.584 14.811 31.872 15.774 31.967 16.171C31.702 16.559 30.928 17.641 29.39 19.419Z" fill="white"/>
</svg>
