<svg width="18" height="18" viewBox="0 0 18 18" fill="none" xmlns="http://www.w3.org/2000/svg">
<g opacity="0.3" clip-path="url(#clip0_125_867)">
<path d="M17.4842 7.29975C16.2212 5.4135 13.4387 2.25 9.00018 2.25C4.56168 2.25 1.77993 5.41425 0.516184 7.29975C-0.175316 8.3325 -0.175316 9.66675 0.516184 10.6995C1.77918 12.5857 4.56168 15.7493 9.00018 15.7493C13.4387 15.7493 16.2204 12.585 17.4842 10.6995C18.1757 9.66675 18.1757 8.3325 17.4842 7.29975ZM16.8609 10.2825C15.6812 12.0443 13.0907 15 9.00093 15C4.91118 15 2.31993 12.0443 1.14018 10.2825C0.618184 9.50325 0.618184 8.49675 1.14018 7.7175C2.31993 5.95575 4.91043 3 9.00018 3C13.0899 3 15.6804 5.95575 16.8602 7.7175C17.3822 8.49675 17.3822 9.50325 16.8602 10.2825H16.8609ZM9.00018 5.25C6.93243 5.25 5.25018 6.93225 5.25018 9C5.25018 11.0677 6.93243 12.75 9.00018 12.75C11.0679 12.75 12.7502 11.0677 12.7502 9C12.7502 6.93225 11.0679 5.25 9.00018 5.25ZM9.00018 12C7.34568 12 6.00018 10.6545 6.00018 9C6.00018 7.3455 7.34568 6 9.00018 6C10.6547 6 12.0002 7.3455 12.0002 9C12.0002 10.6545 10.6547 12 9.00018 12Z" fill="#42404E"/>
</g>
<defs>
<clipPath id="clip0_125_867">
<rect width="18" height="18" fill="white"/>
</clipPath>
</defs>
</svg>
