<svg width="20" height="20" viewBox="0 0 20 20" fill="none" xmlns="http://www.w3.org/2000/svg">
<g clip-path="url(#clip0_37_178)">
<path d="M19.2375 16.2791C18.9091 16.008 18.739 15.5794 18.7825 15.1327L18.8891 14.0386C19.2159 11.0143 19.1447 7.89135 18.7979 4.85536C18.7543 4.41072 18.9212 3.98447 19.2445 3.71518C19.7747 3.27354 20.0539 2.59589 19.9913 1.90245C19.9 0.890861 19.0736 0.0754381 18.0691 0.00571208C17.4288 -0.0388579 16.8156 0.210242 16.3857 0.688675C16.104 1.00223 15.7182 1.16227 15.3273 1.12766L13.339 0.951681C11.0969 0.753284 8.82318 0.754105 6.58116 0.954103L4.67075 1.12453C4.2804 1.15941 3.8945 0.999845 3.61263 0.686879C3.18256 0.209304 2.5692 -0.0390141 1.92968 0.00582926C0.92695 0.0760631 0.101214 0.890354 0.00894903 1.89996C-0.0545661 2.59452 0.224729 3.27323 0.755974 3.71549C1.07679 3.98252 1.24351 4.40798 1.20203 4.85353C0.765115 8.85006 0.842771 11.688 1.2139 15.1409C1.25566 15.5868 1.08804 16.0113 0.765545 16.2765C0.229025 16.7178 -0.0539802 17.398 0.0085584 18.0961C0.0983233 19.0989 0.883903 19.8954 1.87651 19.99C1.94194 19.9962 2.00729 19.9993 2.07237 19.9993C2.67569 19.9993 3.25463 19.7347 3.65064 19.2698C3.93368 18.9376 4.35903 18.7701 4.78879 18.8218L5.43883 18.9C8.47208 19.265 11.548 19.2642 14.5809 18.8976L15.2102 18.8216C15.64 18.7696 16.0659 18.9374 16.3497 19.2703C16.7883 19.7849 17.4511 20.054 18.1231 19.99C19.1175 19.8954 19.9034 19.0975 19.9918 18.0928C20.0529 17.3976 19.771 16.7196 19.2375 16.2791ZM17.7366 6.04676C17.8365 7.03367 17.9035 8.13604 17.9224 9.16041C12.6638 9.99653 7.33975 9.99474 2.08159 9.15525C2.09995 8.15338 2.16874 7.05773 2.26885 6.04379C4.83957 6.44781 7.42577 6.65004 10.0122 6.65004C12.5921 6.65004 15.1723 6.44875 17.7366 6.04676ZM2.23331 13.4463C2.13909 12.4159 2.08643 11.3794 2.07561 10.3421C4.71251 10.7537 7.36502 10.9599 10.0179 10.9599C12.6597 10.9599 15.3017 10.7553 17.9279 10.3471C17.9162 11.3839 17.8623 12.4199 17.7672 13.4503C12.6113 14.2815 7.38881 14.2802 2.23331 13.4463ZM1.1766 2.00687C1.21706 1.5639 1.57601 1.20691 2.01155 1.17641C2.03288 1.17492 2.05405 1.17418 2.07522 1.17418C2.32909 1.17418 2.56916 1.2809 2.74174 1.47254C3.27267 2.0621 4.01376 2.36128 4.77497 2.29343L6.68538 2.123C8.85864 1.92913 11.0625 1.92831 13.2358 2.12066L15.2241 2.29663C15.9859 2.36409 16.7271 2.06394 17.2577 1.47336C17.4446 1.26543 17.7105 1.15723 17.988 1.17641C18.4243 1.20668 18.7836 1.56425 18.8236 2.00808C18.8515 2.31741 18.7285 2.61843 18.4944 2.81339C17.8954 3.31237 17.5741 4.07814 17.6237 4.87696C12.5621 5.67774 7.43741 5.67633 2.37616 4.87298C2.42315 4.07404 2.10178 3.30951 1.50581 2.81342C1.27132 2.61819 1.14828 2.31667 1.1766 2.00687ZM18.8238 17.9899C18.7856 18.4238 18.4367 18.7815 18.0122 18.8219C17.7163 18.8499 17.4354 18.7359 17.2418 18.5087C16.7024 17.876 15.8906 17.5576 15.0697 17.6566L14.4404 17.7327C11.5005 18.088 8.519 18.0887 5.57883 17.735L4.92879 17.6568C4.10841 17.5579 3.29693 17.8764 2.75842 18.5085C2.56475 18.7359 2.28381 18.8501 1.98772 18.8218C1.56398 18.7814 1.21519 18.4244 1.1764 17.9914C1.14851 17.68 1.27328 17.3778 1.51007 17.1831C2.13374 16.6701 2.45944 15.8657 2.38131 15.0315L2.34581 14.6524C4.89118 15.0483 7.45155 15.2468 10.0122 15.2468C12.5633 15.2468 15.1147 15.0497 17.6508 14.6567L17.6156 15.0188C17.5341 15.8548 17.8615 16.6643 18.4913 17.1843C18.7268 17.3787 18.8511 17.6798 18.8238 17.9899Z" fill="#9D92CF"/>
</g>
<defs>
<clipPath id="clip0_37_178">
<rect width="20" height="20" fill="white"/>
</clipPath>
</defs>
</svg>
