<svg width="87" height="87" viewBox="0 0 87 87" fill="none" xmlns="http://www.w3.org/2000/svg">
<g filter="url(#filter0_d_2130_3440)">
<path d="M8.29999 41.3C8.29999 21.97 23.97 6.3 43.3 6.3C62.63 6.3 78.3 21.97 78.3 41.3C78.3 60.63 62.63 76.3 43.3 76.3C23.97 76.3 8.29999 60.63 8.29999 41.3Z" fill="#A37DDC"/>
<path d="M43.3 7.05C62.2157 7.05 77.55 22.3843 77.55 41.3C77.55 60.2158 62.2157 75.55 43.3 75.55C24.3842 75.55 9.04999 60.2158 9.04999 41.3C9.04999 22.3843 24.3842 7.05 43.3 7.05Z" stroke="#8E2DE2" stroke-width="1.5"/>
<g opacity="0.75">
<path d="M46.2459 33.1423C41.9069 32.2529 38.5155 28.9367 37.606 24.6939C37.4943 24.1731 37.0245 23.8 36.4801 23.8C35.9357 23.8 35.4659 24.1731 35.3543 24.694C34.4447 28.9367 31.0533 32.2528 26.7143 33.1421C26.1816 33.2513 25.8 33.7107 25.8 34.243C25.8 34.7752 26.1816 35.2347 26.7143 35.3438C31.0533 36.2333 34.4445 39.5494 35.3541 43.7921C35.4657 44.313 35.9355 44.6862 36.4799 44.6862C37.0242 44.6862 37.4941 44.3131 37.6057 43.7921C38.5153 39.5494 41.9068 36.2333 46.2458 35.344C46.7785 35.2349 47.1602 34.7755 47.1602 34.2432C47.1601 33.7109 46.7785 33.2515 46.2459 33.1423Z" fill="#F6F5F7"/>
<path d="M44.3443 51.7238C42.3 51.3048 40.7021 49.7424 40.2735 47.7433C40.1619 47.2224 39.6921 46.8492 39.1477 46.8492C38.6034 46.8492 38.1335 47.2223 38.0219 47.7432C37.5932 49.7423 35.9953 51.3047 33.951 51.7237C33.4183 51.8329 33.0366 52.2923 33.0366 52.8246C33.0366 53.3568 33.4182 53.8163 33.951 53.9254C35.9952 54.3445 37.5932 55.907 38.0217 57.906C38.1334 58.4269 38.6032 58.8001 39.1475 58.8001C39.6919 58.8001 40.1617 58.427 40.2734 57.906C40.702 55.907 42.2999 54.3445 44.3443 53.9255C44.877 53.8163 45.2587 53.3569 45.2587 52.8246C45.2587 52.2924 44.8771 51.833 44.3443 51.7238Z" fill="#F6F5F7"/>
<path d="M59.8857 41.3092C57.1224 40.7427 54.9627 38.6308 54.3835 35.9289C54.2718 35.408 53.802 35.0349 53.2576 35.0349C52.7133 35.0349 52.2434 35.4079 52.1318 35.9289C51.5525 38.6308 49.3928 40.7427 46.6295 41.309C46.0968 41.4182 45.7151 41.8776 45.7151 42.4099C45.7151 42.9421 46.0967 43.4015 46.6295 43.5107C49.3927 44.0772 51.5524 46.189 52.1317 48.891C52.2433 49.4119 52.7131 49.785 53.2575 49.785C53.8018 49.785 54.2717 49.412 54.3833 48.891C54.9627 46.189 57.1224 44.0772 59.8856 43.5109C60.4183 43.4016 60.8 42.9423 60.8 42.41C60.8 41.8778 60.4184 41.4183 59.8857 41.3092Z" fill="#F6F5F7"/>
</g>
</g>
<defs>
<filter id="filter0_d_2130_3440" x="-1.23978e-05" y="2.86102e-06" width="86.6" height="86.6" filterUnits="userSpaceOnUse" color-interpolation-filters="sRGB">
<feFlood flood-opacity="0" result="BackgroundImageFix"/>
<feColorMatrix in="SourceAlpha" type="matrix" values="0 0 0 0 0 0 0 0 0 0 0 0 0 0 0 0 0 0 127 0" result="hardAlpha"/>
<feMorphology radius="2" operator="dilate" in="SourceAlpha" result="effect1_dropShadow_2130_3440"/>
<feOffset dy="2"/>
<feGaussianBlur stdDeviation="3.15"/>
<feColorMatrix type="matrix" values="0 0 0 0 0.0808647 0 0 0 0 0.0650222 0 0 0 0 0.152948 0 0 0 0.11 0"/>
<feBlend mode="normal" in2="BackgroundImageFix" result="effect1_dropShadow_2130_3440"/>
<feBlend mode="normal" in="SourceGraphic" in2="effect1_dropShadow_2130_3440" result="shape"/>
</filter>
</defs>
</svg>
