<svg width="60" height="60" viewBox="0 0 60 60" fill="none" xmlns="http://www.w3.org/2000/svg">
<g filter="url(#filter0_dd_8083_962)">
<circle cx="29.7115" cy="25.7115" r="25.7115" fill="#4A00E0"/>
</g>
<path d="M40.2 14.903C39.6378 14.3902 38.9791 14.0187 38.2705 13.8148C37.5619 13.611 36.8209 13.5799 36.1 13.7237L32.278 14.4808C31.3956 14.6576 30.5933 15.1528 30 15.887C29.4052 15.1515 28.6006 14.6562 27.716 14.4808L23.9 13.7237C23.1792 13.5798 22.4381 13.6105 21.7294 13.8137C21.0206 14.0168 20.3615 14.3874 19.7986 14.8993C19.2357 15.4112 18.7828 16.0518 18.472 16.7758C18.1612 17.4997 18 18.2894 18 19.0888V30.8632C18.0001 32.1405 18.411 33.3772 19.1611 34.3578C19.9113 35.3385 20.9531 36.0008 22.105 36.2295L28.391 37.4764C29.455 37.6873 30.545 37.6873 31.609 37.4764L37.9 36.2295C39.051 35.9997 40.0916 35.3369 40.8408 34.3563C41.5899 33.3758 42.0002 32.1397 42 30.8632V19.0888C42.0005 18.2897 41.8394 17.5002 41.5283 16.7767C41.2171 16.0532 40.7636 15.4134 40.2 14.903ZM29 35.3742C28.916 35.3611 28.832 35.3458 28.748 35.3295L22.463 34.0836C21.7718 33.9464 21.1466 33.5489 20.6965 32.9604C20.2464 32.3719 19.9999 31.6297 20 30.8632V19.0888C20 18.2209 20.3161 17.3884 20.8787 16.7746C21.4413 16.1609 22.2044 15.8161 23 15.8161C23.1811 15.8165 23.3618 15.8344 23.54 15.8695L27.36 16.6332C27.8196 16.7249 28.2353 16.9893 28.5348 17.3805C28.8344 17.7717 28.999 18.2649 29 18.7747V35.3742ZM40 30.8632C40.0001 31.6297 39.7536 32.3719 39.3035 32.9604C38.8534 33.5489 38.2282 33.9464 37.537 34.0836L31.252 35.3295C31.168 35.3458 31.084 35.3611 31 35.3742V18.7747C30.9999 18.2637 31.1643 17.7689 31.4643 17.3765C31.7644 16.9842 32.1812 16.7192 32.642 16.6277L36.463 15.8641C36.8957 15.7782 37.3405 15.7971 37.7657 15.9196C38.191 16.0421 38.5863 16.2651 38.9238 16.5727C39.2613 16.8804 39.5326 17.2653 39.7186 17.7001C39.9046 18.1349 40.0007 18.609 40 19.0888V30.8632Z" fill="white"/>
<defs>
<filter id="filter0_dd_8083_962" x="0" y="0" width="59.4231" height="59.4231" filterUnits="userSpaceOnUse" color-interpolation-filters="sRGB">
<feFlood flood-opacity="0" result="BackgroundImageFix"/>
<feColorMatrix in="SourceAlpha" type="matrix" values="0 0 0 0 0 0 0 0 0 0 0 0 0 0 0 0 0 0 127 0" result="hardAlpha"/>
<feOffset dy="4"/>
<feGaussianBlur stdDeviation="2"/>
<feComposite in2="hardAlpha" operator="out"/>
<feColorMatrix type="matrix" values="0 0 0 0 0 0 0 0 0 0 0 0 0 0 0 0 0 0 0.25 0"/>
<feBlend mode="normal" in2="BackgroundImageFix" result="effect1_dropShadow_8083_962"/>
<feColorMatrix in="SourceAlpha" type="matrix" values="0 0 0 0 0 0 0 0 0 0 0 0 0 0 0 0 0 0 127 0" result="hardAlpha"/>
<feOffset dy="4"/>
<feGaussianBlur stdDeviation="2"/>
<feComposite in2="hardAlpha" operator="out"/>
<feColorMatrix type="matrix" values="0 0 0 0 0 0 0 0 0 0 0 0 0 0 0 0 0 0 0.25 0"/>
<feBlend mode="normal" in2="effect1_dropShadow_8083_962" result="effect2_dropShadow_8083_962"/>
<feBlend mode="normal" in="SourceGraphic" in2="effect2_dropShadow_8083_962" result="shape"/>
</filter>
</defs>
</svg>
