<svg width="60" height="60" viewBox="0 0 60 60" fill="none" xmlns="http://www.w3.org/2000/svg">
<g filter="url(#filter0_d_8083_965)">
<circle cx="29.7115" cy="25.7115" r="25.7115" fill="#4A00E0"/>
</g>
<path d="M37.5411 26.9274C37.4012 26.7876 37.2231 26.6924 37.0291 26.6538C36.8352 26.6152 36.6341 26.635 36.4514 26.7107C36.2687 26.7864 36.1126 26.9145 36.0027 27.0789C35.8928 27.2433 35.8341 27.4366 35.8341 27.6344V29.3344C34.5508 28.9286 33.3724 28.2459 32.3821 27.3344C32.0874 27.0827 31.7051 26.9579 31.3187 26.9873C30.9323 27.0168 30.5733 27.198 30.3201 27.4914L30.2951 27.5194C30.1664 27.6684 30.0685 27.8414 30.0071 28.0285C29.9457 28.2156 29.922 28.413 29.9374 28.6093C29.9527 28.8056 30.0068 28.9969 30.0965 29.1721C30.1863 29.3474 30.3098 29.5031 30.4601 29.6304C31.9829 31.0053 33.8334 31.966 35.8341 32.4204V34.8114C35.8341 35.0091 35.8928 35.2024 36.0027 35.3668C36.1126 35.5312 36.2687 35.6594 36.4514 35.735C36.6341 35.8107 36.8352 35.8305 37.0291 35.792C37.2231 35.7534 37.4012 35.6582 37.5411 35.5184L41.1271 31.9324C41.3146 31.7448 41.4199 31.4905 41.4199 31.2254C41.4199 30.9602 41.3146 30.7059 41.1271 30.5184L37.5411 26.9274Z" fill="white"/>
<path d="M35.8341 21.1204V22.8064C35.8341 23.0041 35.8928 23.1974 36.0027 23.3618C36.1126 23.5262 36.2687 23.6544 36.4514 23.73C36.6341 23.8057 36.8352 23.8255 37.0291 23.787C37.2231 23.7484 37.4012 23.6532 37.5411 23.5134L41.1271 19.9274C41.3146 19.7398 41.4199 19.4855 41.4199 19.2204C41.4199 18.9552 41.3146 18.7009 41.1271 18.5134L37.5411 14.9274C37.4012 14.7876 37.2231 14.6924 37.0291 14.6538C36.8352 14.6152 36.6341 14.635 36.4514 14.7107C36.2687 14.7864 36.1126 14.9145 36.0027 15.0789C35.8928 15.2433 35.8341 15.4366 35.8341 15.6344V18.0344C32.4841 18.7664 30.2341 20.8154 28.3241 22.9454C26.1381 20.5364 23.5001 18.2414 19.2501 17.8064C19.2041 17.7964 18.9391 17.7674 18.9201 17.7674C18.5341 17.7681 18.1633 17.9177 17.8848 18.1848C17.6063 18.452 17.4414 18.8162 17.4245 19.2018C17.4077 19.5874 17.5401 19.9646 17.7942 20.2551C18.0484 20.5456 18.4047 20.7269 18.7891 20.7614C22.2531 21.0614 24.2891 22.9204 26.3381 25.2194C24.2921 27.5194 22.2511 29.3854 18.7861 29.6814C18.4053 29.7205 18.0538 29.9038 17.8038 30.1937C17.5537 30.4836 17.424 30.8582 17.4411 31.2406C17.4582 31.6231 17.6209 31.9845 17.8959 32.2509C18.1709 32.5172 18.5373 32.6684 18.9201 32.6734C18.9581 32.6734 18.9931 32.6734 19.0311 32.6654C24.2601 32.2204 27.0691 28.9734 29.5681 26.0804C31.4791 23.8704 33.2121 21.9204 35.8341 21.1204Z" fill="white"/>
<defs>
<filter id="filter0_d_8083_965" x="0" y="0" width="59.4231" height="59.4231" filterUnits="userSpaceOnUse" color-interpolation-filters="sRGB">
<feFlood flood-opacity="0" result="BackgroundImageFix"/>
<feColorMatrix in="SourceAlpha" type="matrix" values="0 0 0 0 0 0 0 0 0 0 0 0 0 0 0 0 0 0 127 0" result="hardAlpha"/>
<feOffset dy="4"/>
<feGaussianBlur stdDeviation="2"/>
<feComposite in2="hardAlpha" operator="out"/>
<feColorMatrix type="matrix" values="0 0 0 0 0 0 0 0 0 0 0 0 0 0 0 0 0 0 0.25 0"/>
<feBlend mode="normal" in2="BackgroundImageFix" result="effect1_dropShadow_8083_965"/>
<feBlend mode="normal" in="SourceGraphic" in2="effect1_dropShadow_8083_965" result="shape"/>
</filter>
</defs>
</svg>
