<svg width="30" height="30" viewBox="0 0 30 30" fill="none" xmlns="http://www.w3.org/2000/svg">
<path d="M17.525 8.00771C13.8059 7.24535 10.899 4.40291 10.1194 0.76623C10.0237 0.319804 9.62101 0 9.15439 0C8.68776 0 8.28508 0.319805 8.18938 0.766289C7.40979 4.40291 4.50286 7.24529 0.783734 8.00753C0.32712 8.10111 0 8.49492 0 8.95113C0 9.40734 0.32706 9.80115 0.783734 9.89472C4.5028 10.6571 7.40961 13.4995 8.18921 17.1361C8.2849 17.5826 8.68758 17.9024 9.15421 17.9024C9.62077 17.9024 10.0235 17.5826 10.1192 17.1361C10.8989 13.4995 13.8059 10.6571 17.525 9.8949C17.9816 9.80132 18.3087 9.40757 18.3087 8.9513C18.3087 8.49509 17.9816 8.10128 17.525 8.00771Z" fill="#9D92CF"/>
<path d="M15.8952 23.9347C14.1429 23.5756 12.7733 22.2364 12.4059 20.5229C12.3102 20.0764 11.9076 19.7565 11.4409 19.7565C10.9744 19.7565 10.5716 20.0763 10.4759 20.5228C10.1085 22.2363 8.73888 23.5755 6.98661 23.9347C6.53 24.0282 6.20288 24.4221 6.20288 24.8783C6.20288 25.3345 6.52994 25.7283 6.98661 25.8219C8.73882 26.181 10.1085 27.5203 10.4758 29.2338C10.5715 29.6803 10.9742 30.0001 11.4408 30.0001C11.9074 30.0001 12.3101 29.6804 12.4058 29.2338C12.7732 27.5203 14.1429 26.1811 15.8952 25.8219C16.3518 25.7283 16.6789 25.3345 16.6789 24.8783C16.6789 24.4221 16.3519 24.0284 15.8952 23.9347Z" fill="#9D92CF"/>
<path d="M29.2165 15.0078C26.848 14.5223 24.9968 12.7121 24.5003 10.3962C24.4046 9.94975 24.0019 9.62988 23.5353 9.62988C23.0687 9.62988 22.666 9.94963 22.5703 10.3962C22.0738 12.7121 20.2226 14.5223 17.854 15.0077C17.3974 15.1013 17.0703 15.4951 17.0703 15.9513C17.0703 16.4075 17.3974 16.8013 17.854 16.8949C20.2225 17.3804 22.0737 19.1906 22.5702 21.5065C22.6659 21.953 23.0686 22.2729 23.5352 22.2729C24.0017 22.2729 24.4045 21.9531 24.5002 21.5065C24.9968 19.1906 26.848 17.3804 29.2164 16.895C29.673 16.8014 30.0002 16.4077 30.0002 15.9514C30.0002 15.4952 29.6731 15.1014 29.2165 15.0078Z" fill="#9D92CF"/>
</svg>
