<svg width="20" height="20" viewBox="0 0 20 20" fill="none" xmlns="http://www.w3.org/2000/svg">
<path d="M11.6834 5.33847C9.20394 4.83023 7.26599 2.93527 6.7463 0.51082C6.68246 0.213203 6.414 0 6.10292 0C5.79184 0 5.52339 0.213203 5.45959 0.510859C4.93986 2.93527 3.00191 4.83019 0.522489 5.33836C0.21808 5.40074 0 5.66328 0 5.96742C0 6.27156 0.21804 6.5341 0.522489 6.59648C3.00187 7.10472 4.93974 8.99964 5.45947 11.4241C5.52327 11.7217 5.79172 11.935 6.1028 11.935C6.41385 11.935 6.68234 11.7218 6.74614 11.4241C7.26591 8.99964 9.2039 7.10472 11.6833 6.5966C11.9877 6.53421 12.2058 6.27172 12.2058 5.96754C12.2058 5.66339 11.9877 5.40086 11.6834 5.33847Z" fill="#9D92CF"/>
<path d="M10.5968 15.9564C9.42862 15.717 8.51555 14.8242 8.27062 13.6819C8.20683 13.3842 7.93837 13.171 7.62729 13.171C7.31625 13.171 7.04775 13.3841 6.98396 13.6818C6.73903 14.8241 5.82592 15.7169 4.65774 15.9564C4.35333 16.0188 4.13525 16.2813 4.13525 16.5855C4.13525 16.8896 4.35329 17.1521 4.65774 17.2145C5.82588 17.454 6.73899 18.3468 6.98388 19.4891C7.04767 19.7868 7.31613 20 7.62721 20C7.93825 20 8.20675 19.7869 8.27054 19.4891C8.51547 18.3468 9.42858 17.454 10.5968 17.2146C10.9012 17.1522 11.1193 16.8896 11.1193 16.5855C11.1193 16.2813 10.9012 16.0188 10.5968 15.9564Z" fill="#9D92CF"/>
<path d="M19.4776 10.0052C17.8986 9.68156 16.6644 8.47476 16.3334 6.93082C16.2696 6.63316 16.0012 6.41992 15.6901 6.41992C15.3791 6.41992 15.1106 6.63309 15.0468 6.93078C14.7158 8.47476 13.4816 9.68152 11.9026 10.0052C11.5982 10.0675 11.3801 10.3301 11.3801 10.6342C11.3801 10.9384 11.5982 11.2009 11.9026 11.2633C13.4816 11.5869 14.7157 12.7937 15.0467 14.3377C15.1105 14.6353 15.379 14.8486 15.69 14.8486C16.0011 14.8486 16.2696 14.6354 16.3334 14.3377C16.6644 12.7937 17.8986 11.5869 19.4775 11.2634C19.7819 11.2009 20 10.9384 20 10.6343C20 10.3302 19.782 10.0676 19.4776 10.0052Z" fill="#9D92CF"/>
</svg>
