<svg width="87" height="87" viewBox="0 0 87 87" fill="none" xmlns="http://www.w3.org/2000/svg">
<g filter="url(#filter0_d_2325_1986)">
<rect x="8.3" y="6.3" width="70" height="70" rx="35" fill="#A37DDC"/>
<rect x="9.05" y="7.05" width="68.5" height="68.5" rx="34.25" stroke="#8E2DE2" stroke-width="1.5"/>
<path opacity="0.75" d="M50.2708 27.4249L52.0725 24.4952C52.4927 23.8073 53.3914 23.5945 54.0785 24.0172C54.7657 24.4384 54.9801 25.3348 54.557 26.0213L52.7553 28.951C52.481 29.3999 52.0011 29.6462 51.5109 29.6462C51.2497 29.6462 50.9871 29.5762 50.7493 29.4305C50.0622 29.0093 49.8477 28.1114 50.2708 27.4249ZM33.7007 28.9495C33.9749 29.3984 34.4564 29.6462 34.9466 29.6462C35.2062 29.6462 35.4688 29.5762 35.7066 29.4319C36.3938 29.0107 36.6097 28.1143 36.1881 27.4278L34.3893 24.4967C33.9676 23.8102 33.069 23.5959 32.3833 24.0157C31.6961 24.4369 31.4802 25.3333 31.9018 26.0198L33.7007 28.9495ZM30.5115 32.1678L27.8884 30.9128C27.1648 30.5615 26.288 30.8705 25.9437 31.5979C25.595 32.3237 25.9029 33.1939 26.6294 33.5408L29.2525 34.7957C29.4553 34.8934 29.6697 34.94 29.8813 34.94C30.4254 34.94 30.9477 34.6354 31.1972 34.1121C31.5459 33.3863 31.238 32.5146 30.5115 32.1678ZM43.0916 29.6506C35.0472 29.7832 28.6718 38.4935 33.0398 46.8831C33.7036 48.157 34.6883 49.2239 35.746 50.1961C36.1472 50.5649 36.458 51.0211 36.7235 51.5108H41.8311V43.9549C40.1373 43.3515 38.9133 41.7482 38.9133 39.8505C38.9133 39.0444 39.5654 38.3929 40.3722 38.3929C41.179 38.3929 41.8311 39.0444 41.8311 39.8505C41.8311 40.6565 42.4847 41.308 43.29 41.308C44.0953 41.308 44.7489 40.655 44.7489 39.8505C44.7489 39.0459 45.401 38.3929 46.2078 38.3929C47.0145 38.3929 47.6667 39.0444 47.6667 39.8505C47.6667 41.7482 46.4427 43.3515 44.7489 43.9549V51.5108H49.8083C50.141 50.9409 50.5699 50.4031 51.1315 49.9352C52.093 49.1336 52.9975 48.2401 53.5533 47.1192C56.0874 41.9989 55.0822 36.5389 51.4729 32.9942C49.2248 30.7845 46.2472 29.6025 43.0916 29.6506ZM37.4427 54.8326C37.326 56.9693 38.9279 58.8 41.0695 58.8H45.4769C47.4916 58.8 49.1241 57.169 49.1241 55.1561V54.4274H37.4267C37.4267 54.5644 37.4515 54.6926 37.4427 54.8326ZM60.6698 31.5439C60.3372 30.8108 59.475 30.4799 58.7412 30.8152L55.9226 32.0861C55.1873 32.417 54.8605 33.2799 55.1931 34.013C55.4368 34.5523 55.9663 34.8715 56.5236 34.8715C56.7235 34.8715 56.9277 34.8307 57.1218 34.7418L59.9404 33.4708C60.6757 33.1399 61.0024 32.2771 60.6698 31.5439Z" fill="white"/>
</g>
<defs>
<filter id="filter0_d_2325_1986" x="2.86102e-06" y="2.86102e-06" width="86.6" height="86.6" filterUnits="userSpaceOnUse" color-interpolation-filters="sRGB">
<feFlood flood-opacity="0" result="BackgroundImageFix"/>
<feColorMatrix in="SourceAlpha" type="matrix" values="0 0 0 0 0 0 0 0 0 0 0 0 0 0 0 0 0 0 127 0" result="hardAlpha"/>
<feMorphology radius="2" operator="dilate" in="SourceAlpha" result="effect1_dropShadow_2325_1986"/>
<feOffset dy="2"/>
<feGaussianBlur stdDeviation="3.15"/>
<feColorMatrix type="matrix" values="0 0 0 0 0.0808647 0 0 0 0 0.0650222 0 0 0 0 0.152948 0 0 0 0.11 0"/>
<feBlend mode="normal" in2="BackgroundImageFix" result="effect1_dropShadow_2325_1986"/>
<feBlend mode="normal" in="SourceGraphic" in2="effect1_dropShadow_2325_1986" result="shape"/>
</filter>
</defs>
</svg>
