<svg width="176" height="176" viewBox="0 0 176 176" fill="none" xmlns="http://www.w3.org/2000/svg">
<g filter="url(#filter0_d_103_2)">
<circle cx="87.9999" cy="83.9999" r="83.9999" fill="url(#paint0_linear_103_2)"/>
</g>
<path d="M122.266 48.6883C120.43 47.0129 118.278 45.7992 115.963 45.1334C113.648 44.4675 111.227 44.3658 108.872 44.8355L96.3851 47.309C93.5023 47.8865 90.8812 49.5046 88.9429 51.9031C86.9995 49.5004 84.3709 47.882 81.481 47.309L69.0141 44.8355C66.6591 44.3654 64.2382 44.4658 61.9227 45.1295C59.6072 45.7932 57.4537 47.0041 55.6147 48.6764C53.7757 50.3487 52.2961 52.4415 51.2807 54.8067C50.2653 57.172 49.7389 59.7518 49.7388 62.3636V100.831C49.739 105.003 51.0814 109.044 53.5322 112.248C55.983 115.451 59.3866 117.615 63.1498 118.362L83.6863 122.436C87.1622 123.125 90.7236 123.125 94.1995 122.436L114.752 118.362C118.513 117.612 121.912 115.446 124.36 112.243C126.807 109.039 128.148 105.001 128.147 100.831V62.3636C128.149 59.7527 127.622 57.1736 126.606 54.8099C125.589 52.4462 124.108 50.356 122.266 48.6883ZM85.6759 115.568C85.4015 115.525 85.127 115.475 84.8526 115.422L64.3194 111.352C62.0612 110.903 60.0187 109.605 58.5482 107.682C57.0777 105.759 56.2724 103.335 56.2728 100.831V62.3636C56.2728 59.5279 57.3054 56.8083 59.1434 54.8031C60.9815 52.7979 63.4744 51.6714 66.0738 51.6714C66.6654 51.673 67.2558 51.7314 67.838 51.846L80.318 54.3409C81.8195 54.6406 83.1775 55.5045 84.1562 56.7824C85.1349 58.0604 85.6726 59.6719 85.6759 61.3372V115.568ZM121.613 100.831C121.613 103.335 120.808 105.759 119.338 107.682C117.867 109.605 115.825 110.903 113.566 111.352L93.0332 115.422C92.7588 115.475 92.4843 115.525 92.2099 115.568V61.3372C92.2097 59.6678 92.7465 58.0513 93.7269 56.7695C94.7072 55.4877 96.0688 54.6219 97.5743 54.3231L110.058 51.8282C111.471 51.5476 112.924 51.6096 114.314 52.0097C115.703 52.4098 116.995 53.1382 118.097 54.1435C119.2 55.1487 120.086 56.4061 120.694 57.8266C121.301 59.2472 121.615 60.7961 121.613 62.3636V100.831Z" fill="white"/>
<defs>
<filter id="filter0_d_103_2" x="0" y="0" width="176" height="176" filterUnits="userSpaceOnUse" color-interpolation-filters="sRGB">
<feFlood flood-opacity="0" result="BackgroundImageFix"/>
<feColorMatrix in="SourceAlpha" type="matrix" values="0 0 0 0 0 0 0 0 0 0 0 0 0 0 0 0 0 0 127 0" result="hardAlpha"/>
<feOffset dy="4"/>
<feGaussianBlur stdDeviation="2"/>
<feComposite in2="hardAlpha" operator="out"/>
<feColorMatrix type="matrix" values="0 0 0 0 0 0 0 0 0 0 0 0 0 0 0 0 0 0 0.25 0"/>
<feBlend mode="normal" in2="BackgroundImageFix" result="effect1_dropShadow_103_2"/>
<feBlend mode="normal" in="SourceGraphic" in2="effect1_dropShadow_103_2" result="shape"/>
</filter>
<linearGradient id="paint0_linear_103_2" x1="14.4681" y1="34.9999" x2="181.636" y2="57.3158" gradientUnits="userSpaceOnUse">
<stop stop-color="#16C5E0"/>
<stop offset="1" stop-color="#8DE016"/>
</linearGradient>
</defs>
</svg>
