<svg width="87" height="87" viewBox="0 0 87 87" fill="none" xmlns="http://www.w3.org/2000/svg">
<g filter="url(#filter0_d_2325_1984)">
<rect x="8.29999" y="6.3" width="70" height="70" rx="35" fill="#A37DDC"/>
<rect x="9.04999" y="7.05" width="68.5" height="68.5" rx="34.25" stroke="#8E2DE2" stroke-width="1.5"/>
<path opacity="0.75" d="M54.9667 34.0083H52.4321C53.2566 33.2815 53.9111 32.3821 54.3491 31.374C54.7872 30.3659 54.998 29.2737 54.9667 28.175C54.9667 27.7882 54.813 27.4173 54.5395 27.1438C54.266 26.8703 53.8951 26.7167 53.5083 26.7167C53.1215 26.7167 52.7506 26.8703 52.4771 27.1438C52.2036 27.4173 52.05 27.7882 52.05 28.175C52.05 31.9988 48.5923 33.3229 45.9629 33.7765C46.9334 32.0557 47.5176 30.1443 47.675 28.175C47.675 27.0147 47.2141 25.9019 46.3936 25.0814C45.5731 24.2609 44.4603 23.8 43.3 23.8C42.1397 23.8 41.0269 24.2609 40.2064 25.0814C39.3859 25.9019 38.925 27.0147 38.925 28.175C39.0824 30.1443 39.6666 32.0557 40.6371 33.7765C38.0077 33.3229 34.55 31.9988 34.55 28.175C34.55 27.7882 34.3963 27.4173 34.1229 27.1438C33.8494 26.8703 33.4784 26.7167 33.0917 26.7167C32.7049 26.7167 32.3339 26.8703 32.0605 27.1438C31.787 27.4173 31.6333 27.7882 31.6333 28.175C31.602 29.2737 31.8128 30.3659 32.2508 31.374C32.6889 32.3821 33.3434 33.2815 34.1679 34.0083H31.6333C30.0862 34.0083 28.6025 34.6229 27.5085 35.7169C26.4146 36.8108 25.8 38.2946 25.8 39.8417V41.3C25.8 42.0736 26.1073 42.8154 26.6543 43.3624C27.2012 43.9094 27.9431 44.2167 28.7167 44.2167V51.5083C28.719 53.4415 29.4879 55.2948 30.8549 56.6618C32.2218 58.0287 34.0752 58.7977 36.0083 58.8H50.5917C52.5248 58.7977 54.3781 58.0287 55.7451 56.6618C57.112 55.2948 57.881 53.4415 57.8833 51.5083V44.2167C58.6569 44.2167 59.3987 43.9094 59.9457 43.3624C60.4927 42.8154 60.8 42.0736 60.8 41.3V39.8417C60.8 38.2946 60.1854 36.8108 59.0914 35.7169C57.9975 34.6229 56.5138 34.0083 54.9667 34.0083ZM43.3 26.7167C43.6868 26.7167 44.0577 26.8703 44.3312 27.1438C44.6047 27.4173 44.7583 27.7882 44.7583 28.175C44.5823 29.725 44.0856 31.2213 43.3 32.569C42.5143 31.2213 42.0177 29.725 41.8417 28.175C41.8417 27.7882 41.9953 27.4173 42.2688 27.1438C42.5423 26.8703 42.9132 26.7167 43.3 26.7167ZM28.7167 39.8417C28.7167 39.0681 29.0239 38.3263 29.5709 37.7793C30.1179 37.2323 30.8598 36.925 31.6333 36.925H41.8417V41.3H28.7167V39.8417ZM31.6333 51.5083V44.2167H41.8417V55.8833H36.0083C34.848 55.8833 33.7352 55.4224 32.9147 54.6019C32.0943 53.7815 31.6333 52.6687 31.6333 51.5083ZM54.9667 51.5083C54.9667 52.6687 54.5057 53.7815 53.6852 54.6019C52.8648 55.4224 51.752 55.8833 50.5917 55.8833H44.7583V44.2167H54.9667V51.5083ZM44.7583 41.3V36.925H54.9667C55.7402 36.925 56.4821 37.2323 57.029 37.7793C57.576 38.3263 57.8833 39.0681 57.8833 39.8417V41.3H44.7583Z" fill="white"/>
</g>
<defs>
<filter id="filter0_d_2325_1984" x="-1.23978e-05" y="2.86102e-06" width="86.6" height="86.6" filterUnits="userSpaceOnUse" color-interpolation-filters="sRGB">
<feFlood flood-opacity="0" result="BackgroundImageFix"/>
<feColorMatrix in="SourceAlpha" type="matrix" values="0 0 0 0 0 0 0 0 0 0 0 0 0 0 0 0 0 0 127 0" result="hardAlpha"/>
<feMorphology radius="2" operator="dilate" in="SourceAlpha" result="effect1_dropShadow_2325_1984"/>
<feOffset dy="2"/>
<feGaussianBlur stdDeviation="3.15"/>
<feColorMatrix type="matrix" values="0 0 0 0 0.0808647 0 0 0 0 0.0650222 0 0 0 0 0.152948 0 0 0 0.11 0"/>
<feBlend mode="normal" in2="BackgroundImageFix" result="effect1_dropShadow_2325_1984"/>
<feBlend mode="normal" in="SourceGraphic" in2="effect1_dropShadow_2325_1984" result="shape"/>
</filter>
</defs>
</svg>
