<svg width="12" height="12" viewBox="0 0 12 12" fill="none" xmlns="http://www.w3.org/2000/svg">
<g clip-path="url(#clip0_8142_2458)">
<path d="M11.4935 2.72564C11.4795 2.63714 11.3375 1.84213 10.7615 1.26164C10.183 0.695635 9.38503 0.555635 9.29603 0.541635C9.17753 0.522135 9.05653 0.547135 8.95503 0.610135C8.91953 0.632135 8.39803 0.958635 7.36853 1.82913C7.89803 2.01613 8.58253 2.34064 9.13753 2.88364C9.69453 3.42864 10.0275 4.09914 10.2185 4.61914C11.0785 3.61414 11.402 3.10513 11.4235 3.07013C11.4875 2.96763 11.5125 2.84513 11.4935 2.72564Z" fill="#9864E1"/>
<path d="M6.47495 2.61133C5.93845 3.09533 5.31395 3.68333 4.59895 4.39333C1.56745 7.40333 0.772449 8.60683 0.739949 8.65633C0.694449 8.72633 0.666949 8.80683 0.660449 8.88983L0.500949 10.9253C0.489949 11.0713 0.542449 11.2143 0.645949 11.3178C0.739949 11.4118 0.867449 11.4643 0.999949 11.4643C1.01245 11.4643 1.02545 11.4643 1.03845 11.4628L3.08895 11.3048C3.17145 11.2983 3.25095 11.2718 3.32045 11.2273C3.37045 11.1953 4.58195 10.4058 7.61295 7.39633C8.34395 6.67033 8.94695 6.03833 9.44045 5.49783C9.36495 5.17333 9.10145 4.24733 8.43795 3.59883C7.76495 2.94033 6.79695 2.68233 6.47495 2.61133Z" fill="#9864E1"/>
</g>
<defs>
<clipPath id="clip0_8142_2458">
<rect width="12" height="12" fill="white"/>
</clipPath>
</defs>
</svg>
