<svg width="18" height="18" viewBox="0 0 18 18" fill="none" xmlns="http://www.w3.org/2000/svg">
<path opacity="0.3" d="M17.9941 3.40813C17.9851 3.35307 17.7675 2.0423 16.8667 1.12846C15.9577 0.232695 14.6478 0.014918 14.593 0.00587825C14.4957 -0.0113795 14.3975 0.00998731 14.3132 0.0617607C14.2134 0.123396 11.8203 1.63386 6.9097 6.54247C1.73403 11.7165 0.393883 13.7595 0.339067 13.8442C0.30225 13.9017 0.279341 13.9674 0.274432 14.0356L0.0011675 17.5571C-0.00783224 17.677 0.0355301 17.7945 0.1198 17.88C0.196707 17.9573 0.300613 18 0.409429 18C0.420065 18 0.430701 18 0.441337 17.9992L3.96433 17.7255C4.03223 17.7206 4.09687 17.6984 4.15414 17.6614C4.23841 17.6072 6.28135 16.2668 11.4554 11.0944C16.366 6.18499 17.8763 3.79191 17.9377 3.69247C17.99 3.60783 18.0105 3.50757 17.9949 3.40977L17.9941 3.40813ZM10.8769 10.5109C6.34435 15.0423 4.21714 16.6144 3.79088 16.9144L0.853688 17.1429L1.08114 14.2099C1.38222 13.7817 2.95635 11.6549 7.48568 7.12677C8.93627 5.67712 10.1676 4.52495 11.1821 3.62262C11.5781 3.71466 12.5902 4.00722 13.3052 4.71232C14.0154 5.41168 14.3116 6.39373 14.4065 6.78819C13.5 7.80722 12.3406 9.04732 10.8769 10.5109ZM15.0455 6.05761C14.8524 5.49796 14.4981 4.73616 13.8779 4.12474C13.2586 3.51496 12.4846 3.16652 11.9176 2.97668C13.3961 1.70372 14.2919 1.06518 14.611 0.848223C14.935 0.923828 15.7254 1.1564 16.2882 1.71029C16.8405 2.27076 17.0761 3.06215 17.1539 3.3884C16.937 3.70726 16.3038 4.59645 15.0455 6.05761Z" fill="#42404E"/>
</svg>
