<svg width="22" height="21" viewBox="0 0 22 21" fill="none" xmlns="http://www.w3.org/2000/svg">
<path d="M21.8513 0.144137C21.6553 -0.0498632 21.3373 -0.0478632 21.1443 0.149137L16.7373 4.61614C15.0153 3.00114 12.4523 1.48414 9.15334 4.23514C8.77134 4.45214 5.59234 6.25514 3.81334 7.17214C2.65334 7.77114 0.873341 8.48314 0.803341 8.51414C0.372341 8.74614 0.103341 9.14914 0.0243414 9.67814C-0.236659 11.4151 1.60834 14.3871 5.21834 18.0471C7.04034 19.8941 8.90634 20.8301 10.7663 20.8301C12.3433 20.8301 13.9073 20.1241 15.1703 18.8431C17.2293 16.7551 17.7643 13.5641 17.8633 12.8211C20.5073 9.57014 19.0303 7.03614 17.4403 5.32414L21.8533 0.851137C22.0473 0.655137 22.0453 0.338137 21.8493 0.144137H21.8513ZM14.4583 18.1411C13.3693 19.2461 12.0933 19.8301 10.7673 19.8301C9.74534 19.8301 8.70434 19.4801 7.65634 18.7881C7.89134 18.6341 8.30434 18.3561 8.60634 18.1211C9.30834 17.5731 10.4473 16.4631 10.4953 16.4161C10.6923 16.2231 10.6963 15.9061 10.5033 15.7081C10.3123 15.5121 9.99434 15.5081 9.79634 15.7001C9.78534 15.7111 8.65034 16.8181 7.99134 17.3311C7.68134 17.5731 7.24434 17.8621 7.04634 17.9921L6.80134 18.1471C6.51134 17.9051 6.22134 17.6371 5.93134 17.3431C4.69234 16.0881 3.76134 15.0181 3.06234 14.1121C3.07734 14.1061 3.09034 14.1011 3.09934 14.0981C3.38934 13.9841 4.03434 13.7221 4.50134 13.4891C5.47834 13.0011 7.12134 11.9351 7.19034 11.8901C7.42134 11.7391 7.48734 11.4301 7.33634 11.1981C7.18634 10.9661 6.87434 10.9011 6.64534 11.0511C6.62834 11.0621 4.98034 12.1321 4.05334 12.5941C3.61334 12.8141 3.00334 13.0601 2.73134 13.1681C2.68734 13.1851 2.56234 13.2321 2.44634 13.2741C1.00034 11.1891 0.962341 10.1671 1.01434 9.82514C1.05634 9.54314 1.18534 9.44414 1.22734 9.41714C1.30134 9.38714 3.06934 8.68014 4.27334 8.05914C5.82834 7.25714 8.43534 5.78914 9.35434 5.26914L16.8593 12.7921C16.7363 13.6021 16.2033 16.3721 14.4603 18.1381L14.4583 18.1411ZM17.3423 11.8661L10.1863 4.69214C12.3113 3.11414 14.1353 3.41414 16.3743 5.66014C18.6153 7.90714 18.9153 9.73714 17.3413 11.8661H17.3423Z" fill="white"/>
</svg>
