<svg width="176" height="176" viewBox="0 0 176 176" fill="none" xmlns="http://www.w3.org/2000/svg">
<g filter="url(#filter0_d_103_45)">
<circle cx="88" cy="84" r="84" fill="url(#paint0_linear_103_45)"/>
</g>
<path d="M113.578 87.9719C113.121 87.5151 112.539 87.2041 111.906 87.0781C111.272 86.9521 110.615 87.0168 110.018 87.264C109.422 87.5112 108.911 87.9298 108.552 88.467C108.193 89.0041 108.002 89.6356 108.002 90.2817V95.8356C103.809 94.5101 99.959 92.2795 96.7238 89.3016C95.7612 88.4793 94.5121 88.0717 93.2497 88.1678C91.9873 88.264 90.8144 88.856 89.9873 89.8145L89.9056 89.906C89.4852 90.3928 89.1654 90.9582 88.9648 91.5694C88.7642 92.1805 88.6868 92.8254 88.7369 93.4667C88.787 94.108 88.9637 94.733 89.2569 95.3056C89.55 95.8782 89.9537 96.387 90.4446 96.8026C95.4197 101.295 101.465 104.433 108.002 105.918V113.729C108.002 114.375 108.193 115.007 108.552 115.544C108.911 116.081 109.422 116.499 110.018 116.747C110.615 116.994 111.272 117.059 111.906 116.933C112.539 116.807 113.121 116.496 113.578 116.039L125.294 104.323C125.906 103.711 126.25 102.88 126.25 102.014C126.25 101.147 125.906 100.316 125.294 99.7037L113.578 87.9719Z" fill="white"/>
<path d="M108.002 69.0003V74.5085C108.002 75.1546 108.193 75.7861 108.552 76.3232C108.911 76.8603 109.422 77.279 110.018 77.5262C110.615 77.7734 111.272 77.8381 111.906 77.7121C112.539 77.5861 113.121 77.2751 113.578 76.8183L125.294 65.1028C125.906 64.4901 126.25 63.6593 126.25 62.793C126.25 61.9267 125.906 61.0959 125.294 60.4832L113.578 48.7677C113.121 48.3109 112.539 47.9999 111.906 47.8739C111.272 47.7479 110.615 47.8126 110.018 48.0598C109.422 48.307 108.911 48.7257 108.552 49.2628C108.193 49.7999 108.002 50.4314 108.002 51.0775V58.9183C97.0571 61.3098 89.7063 68.0039 83.4663 74.9626C76.3246 67.0924 67.7062 59.5946 53.8214 58.1734C53.6711 58.1408 52.8054 58.046 52.7433 58.046C51.4824 58.0485 50.2709 58.537 49.3609 59.4098C48.4509 60.2826 47.9123 61.4726 47.8572 62.7323C47.8021 63.992 48.2347 65.2245 49.065 66.1735C49.8953 67.1224 51.0594 67.7148 52.3153 67.8275C63.6322 68.8076 70.2839 74.881 76.978 82.3918C70.2937 89.906 63.6257 96.0022 52.3055 96.9693C51.0613 97.0972 49.9132 97.6961 49.0962 98.6432C48.2793 99.5902 47.8554 100.814 47.9113 102.063C47.9673 103.313 48.4989 104.494 49.3972 105.364C50.2956 106.234 51.4926 106.728 52.7433 106.744C52.8674 106.744 52.9818 106.744 53.1059 106.718C70.1891 105.264 79.3662 94.6562 87.5305 85.2047C93.7737 77.9846 99.4355 71.6139 108.002 69.0003Z" fill="white"/>
<defs>
<filter id="filter0_d_103_45" x="0" y="0" width="176" height="176" filterUnits="userSpaceOnUse" color-interpolation-filters="sRGB">
<feFlood flood-opacity="0" result="BackgroundImageFix"/>
<feColorMatrix in="SourceAlpha" type="matrix" values="0 0 0 0 0 0 0 0 0 0 0 0 0 0 0 0 0 0 127 0" result="hardAlpha"/>
<feOffset dy="4"/>
<feGaussianBlur stdDeviation="2"/>
<feComposite in2="hardAlpha" operator="out"/>
<feColorMatrix type="matrix" values="0 0 0 0 0 0 0 0 0 0 0 0 0 0 0 0 0 0 0.25 0"/>
<feBlend mode="normal" in2="BackgroundImageFix" result="effect1_dropShadow_103_45"/>
<feBlend mode="normal" in="SourceGraphic" in2="effect1_dropShadow_103_45" result="shape"/>
</filter>
<linearGradient id="paint0_linear_103_45" x1="14.4681" y1="35" x2="181.636" y2="57.3159" gradientUnits="userSpaceOnUse">
<stop stop-color="#16C5E0"/>
<stop offset="1" stop-color="#8DE016"/>
</linearGradient>
</defs>
</svg>
