<svg width="43" height="43" viewBox="0 0 43 43" fill="none" xmlns="http://www.w3.org/2000/svg">
<g filter="url(#filter0_d_2325_1963)">
<circle cx="21.5" cy="17.5" r="17.5" fill="url(#paint0_linear_2325_1963)"/>
<path d="M11.407 21.0095H10.299L13.5036 12.2822H14.5945L17.799 21.0095H16.6911L14.0831 13.6629H14.0149L11.407 21.0095ZM11.8161 17.6004H16.282V18.5379H11.8161V17.6004ZM21.4936 21.1459C20.9482 21.1459 20.4666 21.0081 20.049 20.7325C19.6314 20.4541 19.3047 20.0621 19.0689 19.5564C18.8331 19.0479 18.7152 18.447 18.7152 17.7538C18.7152 17.0663 18.8331 16.4697 19.0689 15.9641C19.3047 15.4584 19.6328 15.0678 20.0533 14.7922C20.4737 14.5166 20.9595 14.3788 21.5107 14.3788C21.9368 14.3788 22.2734 14.4499 22.5206 14.5919C22.7706 14.7311 22.9609 14.8902 23.0916 15.0692C23.2251 15.2453 23.3288 15.3902 23.4027 15.5038H23.4879V12.2822H24.4936V21.0095H23.522V20.0038H23.4027C23.3288 20.1232 23.2237 20.2737 23.0874 20.4555C22.951 20.6345 22.7564 20.795 22.5036 20.9371C22.2507 21.0763 21.9141 21.1459 21.4936 21.1459ZM21.63 20.2425C22.0334 20.2425 22.3743 20.1374 22.6527 19.9271C22.9311 19.7141 23.1428 19.42 23.2876 19.045C23.4325 18.6672 23.505 18.2311 23.505 17.7368C23.505 17.2482 23.4339 16.8206 23.2919 16.4541C23.1499 16.0848 22.9396 15.7979 22.6612 15.5933C22.3828 15.3859 22.0391 15.2822 21.63 15.2822C21.2038 15.2822 20.8487 15.3916 20.5646 15.6104C20.2834 15.8263 20.0717 16.1203 19.9297 16.4925C19.7905 16.8618 19.7209 17.2766 19.7209 17.7368C19.7209 18.2027 19.7919 18.626 19.9339 19.0067C20.0788 19.3845 20.2919 19.6857 20.5732 19.9101C20.8572 20.1317 21.2095 20.2425 21.63 20.2425ZM28.9467 21.1459C28.4013 21.1459 27.9197 21.0081 27.5021 20.7325C27.0845 20.4541 26.7578 20.0621 26.522 19.5564C26.2862 19.0479 26.1683 18.447 26.1683 17.7538C26.1683 17.0663 26.2862 16.4697 26.522 15.9641C26.7578 15.4584 27.0859 15.0678 27.5064 14.7922C27.9268 14.5166 28.4126 14.3788 28.9638 14.3788C29.3899 14.3788 29.7266 14.4499 29.9737 14.5919C30.2237 14.7311 30.4141 14.8902 30.5447 15.0692C30.6783 15.2453 30.782 15.3902 30.8558 15.5038H30.9411V12.2822H31.9467V21.0095H30.9751V20.0038H30.8558C30.782 20.1232 30.6768 20.2737 30.5405 20.4555C30.4041 20.6345 30.2095 20.795 29.9567 20.9371C29.7038 21.0763 29.3672 21.1459 28.9467 21.1459ZM29.0831 20.2425C29.4865 20.2425 29.8274 20.1374 30.1058 19.9271C30.3842 19.7141 30.5959 19.42 30.7408 19.045C30.8857 18.6672 30.9581 18.2311 30.9581 17.7368C30.9581 17.2482 30.8871 16.8206 30.745 16.4541C30.603 16.0848 30.3928 15.7979 30.1143 15.5933C29.8359 15.3859 29.4922 15.2822 29.0831 15.2822C28.657 15.2822 28.3018 15.3916 28.0178 15.6104C27.7365 15.8263 27.5249 16.1203 27.3828 16.4925C27.2436 16.8618 27.174 17.2766 27.174 17.7368C27.174 18.2027 27.245 18.626 27.3871 19.0067C27.532 19.3845 27.745 19.6857 28.0263 19.9101C28.3104 20.1317 28.6626 20.2425 29.0831 20.2425Z" fill="white"/>
</g>
<defs>
<filter id="filter0_d_2325_1963" x="0" y="0" width="43" height="43" filterUnits="userSpaceOnUse" color-interpolation-filters="sRGB">
<feFlood flood-opacity="0" result="BackgroundImageFix"/>
<feColorMatrix in="SourceAlpha" type="matrix" values="0 0 0 0 0 0 0 0 0 0 0 0 0 0 0 0 0 0 127 0" result="hardAlpha"/>
<feOffset dy="4"/>
<feGaussianBlur stdDeviation="2"/>
<feComposite in2="hardAlpha" operator="out"/>
<feColorMatrix type="matrix" values="0 0 0 0 0 0 0 0 0 0 0 0 0 0 0 0 0 0 0.25 0"/>
<feBlend mode="normal" in2="BackgroundImageFix" result="effect1_dropShadow_2325_1963"/>
<feBlend mode="normal" in="SourceGraphic" in2="effect1_dropShadow_2325_1963" result="shape"/>
</filter>
<linearGradient id="paint0_linear_2325_1963" x1="12.048" y1="1.75" x2="41.0611" y2="23.347" gradientUnits="userSpaceOnUse">
<stop stop-color="#16C5E0"/>
<stop offset="1" stop-color="#8DE016"/>
</linearGradient>
</defs>
</svg>
