<svg width="162" height="30" viewBox="0 0 162 30" fill="none" xmlns="http://www.w3.org/2000/svg">
<path d="M16.0089 1.634L19.8799 9.565L28.5354 10.837C29.4584 10.9725 29.8269 12.1195 29.1589 12.7775L22.8954 18.951L24.3739 27.668C24.5314 28.5975 23.5669 29.306 22.7414 28.8675L14.9994 24.752L7.25741 28.8675C6.43191 29.3065 5.46741 28.5975 5.62491 27.668L7.10341 18.951L0.84091 12.7775C0.17291 12.1195 0.54141 10.9725 1.46441 10.837L10.1199 9.565L13.9909 1.634C14.4034 0.788503 15.5959 0.788503 16.0089 1.634Z" fill="#FFBC00"/>
<path d="M29.1599 12.775L22.8949 18.95L24.3749 27.67C24.5299 28.595 23.5649 29.305 22.7399 28.865L14.9999 24.75L7.25993 28.865C6.43493 29.305 5.46993 28.595 5.62493 27.67L6.40493 23.085C13.3999 20.44 19.7049 15.965 24.5199 10.245L28.5349 10.835C29.4599 10.97 29.8249 12.12 29.1599 12.775Z" fill="#F9AD03"/>
<path d="M49.0089 1.634L52.8799 9.565L61.5354 10.837C62.4584 10.9725 62.8269 12.1195 62.1589 12.7775L55.8954 18.951L57.3739 27.668C57.5314 28.5975 56.5669 29.306 55.7414 28.8675L47.9994 24.752L40.2574 28.8675C39.4319 29.3065 38.4674 28.5975 38.6249 27.668L40.1034 18.951L33.8409 12.7775C33.1729 12.1195 33.5414 10.9725 34.4644 10.837L43.1199 9.565L46.9909 1.634C47.4034 0.788503 48.5959 0.788503 49.0089 1.634Z" fill="#FFBC00"/>
<path d="M62.1599 12.775L55.8949 18.95L57.3749 27.67C57.5299 28.595 56.5649 29.305 55.7399 28.865L47.9999 24.75L40.2599 28.865C39.4349 29.305 38.4699 28.595 38.6249 27.67L39.4049 23.085C46.3999 20.44 52.7049 15.965 57.5199 10.245L61.5349 10.835C62.4599 10.97 62.8249 12.12 62.1599 12.775Z" fill="#F9AD03"/>
<path d="M82.0089 1.634L85.8799 9.565L94.5354 10.837C95.4584 10.9725 95.8269 12.1195 95.1589 12.7775L88.8954 18.951L90.3739 27.668C90.5314 28.5975 89.5669 29.306 88.7414 28.8675L80.9994 24.752L73.2574 28.8675C72.4319 29.3065 71.4674 28.5975 71.6249 27.668L73.1034 18.951L66.8409 12.7775C66.1729 12.1195 66.5414 10.9725 67.4644 10.837L76.1199 9.565L79.9909 1.634C80.4034 0.788503 81.5959 0.788503 82.0089 1.634Z" fill="#FFBC00"/>
<path d="M95.1599 12.775L88.8949 18.95L90.3749 27.67C90.5299 28.595 89.5649 29.305 88.7399 28.865L80.9999 24.75L73.2599 28.865C72.4349 29.305 71.4699 28.595 71.6249 27.67L72.4049 23.085C79.3999 20.44 85.7049 15.965 90.5199 10.245L94.5349 10.835C95.4599 10.97 95.8249 12.12 95.1599 12.775Z" fill="#F9AD03"/>
<path d="M115.009 1.634L118.88 9.565L127.535 10.837C128.458 10.9725 128.827 12.1195 128.159 12.7775L121.895 18.951L123.374 27.668C123.531 28.5975 122.567 29.306 121.741 28.8675L113.999 24.752L106.257 28.8675C105.432 29.3065 104.467 28.5975 104.625 27.668L106.103 18.951L99.8409 12.7775C99.1729 12.1195 99.5414 10.9725 100.464 10.837L109.12 9.565L112.991 1.634C113.403 0.788503 114.596 0.788503 115.009 1.634Z" fill="#FFBC00"/>
<path d="M128.16 12.775L121.895 18.95L123.375 27.67C123.53 28.595 122.565 29.305 121.74 28.865L114 24.75L106.26 28.865C105.435 29.305 104.47 28.595 104.625 27.67L105.405 23.085C112.4 20.44 118.705 15.965 123.52 10.245L127.535 10.835C128.46 10.97 128.825 12.12 128.16 12.775Z" fill="#F9AD03"/>
<path d="M148.009 1.634L151.88 9.565L160.535 10.837C161.458 10.9725 161.827 12.1195 161.159 12.7775L154.895 18.951L156.374 27.668C156.531 28.5975 155.567 29.306 154.741 28.8675L146.999 24.752L139.257 28.8675C138.432 29.3065 137.467 28.5975 137.625 27.668L139.103 18.951L132.841 12.7775C132.173 12.1195 132.541 10.9725 133.464 10.837L142.12 9.565L145.991 1.634C146.403 0.788503 147.596 0.788503 148.009 1.634Z" fill="#FFBC00"/>
<path d="M161.16 12.775L154.895 18.95L156.375 27.67C156.53 28.595 155.565 29.305 154.74 28.865L147 24.75L139.26 28.865C138.435 29.305 137.47 28.595 137.625 27.67L138.405 23.085C145.4 20.44 151.705 15.965 156.52 10.245L160.535 10.835C161.46 10.97 161.825 12.12 161.16 12.775Z" fill="#F9AD03"/>
</svg>
