<svg width="20" height="20" viewBox="0 0 20 20" fill="none" xmlns="http://www.w3.org/2000/svg">
<g opacity="0.75" clip-path="url(#clip0_37_169)">
<path d="M19.1665 0C17.6249 0 16.3757 0.845 15.6474 2.37833L15.069 3.595L14.0315 3.10083C12.374 2.31083 10.3824 3.01583 9.59569 4.66333L8.08569 7.72917C7.27819 9.36833 7.95152 11.3658 9.58569 12.1833L10.7182 12.75L10.0265 14.2058C9.38736 14.2925 8.80986 14.5758 8.37152 15.0075C8.35819 15.0075 8.34652 15 8.33236 15H3.33236C1.49402 15 -0.000976562 16.495 -0.000976562 18.3333C-0.000976562 19.1417 0.58319 20 1.66569 20H5.83236C6.29319 20 6.66569 19.6267 6.66569 19.1667C6.66569 18.7067 6.29319 18.3333 5.83236 18.3333H1.66652C1.66652 17.4142 2.41402 16.6667 3.33319 16.6667H7.54236C7.52236 16.8042 7.49986 16.9408 7.49986 17.0833C7.49986 18.6917 8.80819 20 10.4165 20C12.0249 20 13.3332 18.6917 13.3332 17.0833C13.3332 15.9517 12.679 14.98 11.7349 14.4967L17.1532 3.09333C17.6024 2.14667 18.2807 1.66667 19.1665 1.66667C19.6274 1.66667 19.9999 1.29333 19.9999 0.833333C19.9999 0.373333 19.6274 0 19.1665 0ZM10.3315 10.6925C9.51486 10.2842 9.17736 9.285 9.58236 8.46583L11.0957 5.39167C11.4907 4.56417 12.4865 4.21083 13.3157 4.60667L14.354 5.10083L11.4349 11.245L10.3315 10.6925ZM10.4165 18.3333C9.72736 18.3333 9.16652 17.7725 9.16652 17.0833C9.16652 16.3942 9.72736 15.8333 10.4165 15.8333C11.1057 15.8333 11.6665 16.3942 11.6665 17.0833C11.6665 17.7725 11.1057 18.3333 10.4165 18.3333Z" fill="white"/>
</g>
<defs>
<clipPath id="clip0_37_169">
<rect width="20" height="20" fill="white"/>
</clipPath>
</defs>
</svg>
