<svg width="12" height="12" viewBox="0 0 12 12" fill="none" xmlns="http://www.w3.org/2000/svg">
<path d="M11.2684 0.268388C11.0965 0.0965392 10.8634 0 10.6203 0C10.3772 0 10.1441 0.0965392 9.97222 0.268388L5.76839 4.47222L1.56455 0.268388C1.39265 0.0965392 1.15954 0 0.916471 0C0.673404 0 0.440288 0.0965392 0.268388 0.268388C0.0965392 0.440288 0 0.673404 0 0.916471C0 1.15954 0.0965392 1.39265 0.268388 1.56455L4.47222 5.76839L0.268388 9.97222C0.0965392 10.1441 0 10.3772 0 10.6203C0 10.8634 0.0965392 11.0965 0.268388 11.2684C0.440288 11.4402 0.673404 11.5368 0.916471 11.5368C1.15954 11.5368 1.39265 11.4402 1.56455 11.2684L5.76839 7.06455L9.97222 11.2684C10.1441 11.4402 10.3772 11.5368 10.6203 11.5368C10.8634 11.5368 11.0965 11.4402 11.2684 11.2684C11.4402 11.0965 11.5368 10.8634 11.5368 10.6203C11.5368 10.3772 11.4402 10.1441 11.2684 9.97222L7.06455 5.76839L11.2684 1.56455C11.4402 1.39265 11.5368 1.15954 11.5368 0.916471C11.5368 0.673404 11.4402 0.440288 11.2684 0.268388Z" fill="#42404E"/>
</svg>
