<svg width="11" height="11" viewBox="0 0 11 11" fill="none" xmlns="http://www.w3.org/2000/svg">
<path d="M10.0179 4.51786H6.67857C6.57009 4.51786 6.48214 4.42991 6.48214 4.32143V0.982143C6.48214 0.439758 6.04238 0 5.5 0C4.95762 0 4.51786 0.439758 4.51786 0.982143V4.32143C4.51786 4.42991 4.42991 4.51786 4.32143 4.51786H0.982143C0.439758 4.51786 0 4.95762 0 5.5C0 6.04238 0.439758 6.48214 0.982143 6.48214H4.32143C4.42991 6.48214 4.51786 6.57009 4.51786 6.67857V10.0179C4.51786 10.5602 4.95762 11 5.5 11C6.04238 11 6.48214 10.5602 6.48214 10.0179V6.67857C6.48214 6.57009 6.57009 6.48214 6.67857 6.48214H10.0179C10.5602 6.48214 11 6.04238 11 5.5C11 4.95762 10.5602 4.51786 10.0179 4.51786Z" fill="#9864E1"/>
</svg>
