<svg width="12" height="7" viewBox="0 0 12 7" fill="none" xmlns="http://www.w3.org/2000/svg">
<path d="M11.5276 6.12136C11.4173 6.23171 11.2863 6.31925 11.1422 6.37898C10.9981 6.4387 10.8436 6.46944 10.6876 6.46944C10.5316 6.46944 10.3771 6.4387 10.233 6.37898C10.0889 6.31925 9.95792 6.23171 9.84764 6.12136L6.21706 2.49157C6.14283 2.41737 6.04217 2.37568 5.93721 2.37568C5.83224 2.37568 5.73158 2.41737 5.65735 2.49157L2.02756 6.12136C1.80489 6.34414 1.50285 6.46933 1.18788 6.4694C0.872909 6.46948 0.570809 6.34443 0.348038 6.12176C0.125267 5.89909 7.42685e-05 5.59705 3.30332e-08 5.28208C-7.42025e-05 4.96711 0.124976 4.66501 0.347642 4.44224L3.97823 0.811656C4.23552 0.55433 4.54099 0.350207 4.87718 0.210942C5.21338 0.0716767 5.57371 -2.86102e-06 5.9376 -2.86102e-06C6.3015 -2.86102e-06 6.66183 0.0716767 6.99802 0.210942C7.33421 0.350207 7.63968 0.55433 7.89698 0.811656L11.5276 4.44224C11.7502 4.66493 11.8752 4.96692 11.8752 5.2818C11.8752 5.59668 11.7502 5.89868 11.5276 6.12136Z" fill="white"/>
</svg>
