<svg width="31" height="31" viewBox="0 0 31 31" fill="none" xmlns="http://www.w3.org/2000/svg">
<path d="M28.4386 7.53525L27.125 6.6493V1.94189C27.125 1.58544 26.8357 1.29615 26.4792 1.29615C26.1227 1.29615 25.8333 1.58544 25.8333 1.94189V5.77756L18.7511 0.999115C16.7762 -0.333684 14.2225 -0.332393 12.2502 0.999115L2.56137 7.53525C0.957125 8.61621 0 10.4178 0 12.3524V25.1884C0 28.3925 2.60787 31 5.8125 31H9.6875C10.044 31 10.3333 30.7107 10.3333 30.3543V18.731C10.3333 17.663 11.2026 16.7938 12.2708 16.7938H18.7292C19.7974 16.7938 20.6667 17.663 20.6667 18.731V30.3543C20.6667 30.7107 20.956 31 21.3125 31H25.1875C28.3921 31 31 28.3925 31 25.1884V12.3524C31 10.4165 30.0429 8.61621 28.4386 7.53525ZM29.7083 25.1884C29.7083 27.6809 27.6804 29.7085 25.1875 29.7085H21.9583V18.731C21.9583 16.9514 20.5104 15.5023 18.7292 15.5023H12.2708C10.4896 15.5023 9.04167 16.9514 9.04167 18.731V29.7085H5.8125C3.31958 29.7085 1.29167 27.6809 1.29167 25.1884V12.3524C1.29167 10.8466 2.03567 9.44663 3.28342 8.60588L12.9709 2.06974C14.5067 1.03269 16.4933 1.03269 18.0291 2.06974L27.7166 8.60588C28.9643 9.44663 29.7083 10.8479 29.7083 12.3524V25.1884Z" fill="white"/>
</svg>
