<svg width="20" height="20" viewBox="0 0 20 20" fill="none" xmlns="http://www.w3.org/2000/svg">
<path d="M18.3333 7.42909V5.45455C18.3333 2.44636 16.0908 0 13.3333 0H6.66667C3.90917 0 1.66667 2.44636 1.66667 5.45455V7.42909C0.696667 7.80455 0 8.81455 0 10V13.6364C0 15.12 0.655 16.44 1.66667 17.27V17.2727V19.0909C1.66667 19.5927 2.04 20 2.5 20C2.96 20 3.33333 19.5927 3.33333 19.0909V18.09C3.6025 18.15 3.88167 18.1818 4.16667 18.1818H15.8333C16.1183 18.1818 16.3975 18.15 16.6667 18.09V19.0909C16.6667 19.5927 17.04 20 17.5 20C17.96 20 18.3333 19.5927 18.3333 19.0909V17.2727V17.27C19.345 16.44 20 15.12 20 13.6364V10C20 8.81455 19.3033 7.80455 18.3333 7.42909ZM6.66667 1.81818H13.3333C15.1717 1.81818 16.6667 3.44909 16.6667 5.45455V7.42909C15.6967 7.80455 15 8.81455 15 10V11.8182H5V10C5 8.81455 4.30333 7.80455 3.33333 7.42909V5.45455C3.33333 3.44909 4.82833 1.81818 6.66667 1.81818ZM18.3333 13.6364C18.3333 15.14 17.2117 16.3636 15.8333 16.3636H4.16667C2.78833 16.3636 1.66667 15.14 1.66667 13.6364V10C1.66667 9.49909 2.04083 9.09091 2.5 9.09091C2.95917 9.09091 3.33333 9.49909 3.33333 10V12.7273C3.33333 13.2291 3.70667 13.6364 4.16667 13.6364H15.8333C16.2933 13.6364 16.6667 13.2291 16.6667 12.7273V10C16.6667 9.49909 17.0408 9.09091 17.5 9.09091C17.9592 9.09091 18.3333 9.49909 18.3333 10V13.6364Z" fill="#9D92CF"/>
</svg>
