<svg width="20" height="20" viewBox="0 0 20 20" fill="none" xmlns="http://www.w3.org/2000/svg">
<path d="M17.0808 5.64558L18.0167 3.76372L19.8883 2.82279L18.0167 1.88186L17.0808 0L16.145 1.88186L14.2733 2.82279L16.145 3.76372L17.0808 5.64558ZM16.7667 2.50691L17.0808 1.87516L17.395 2.50691L18.0233 2.82279L17.395 3.13867L17.0808 3.77042L16.7667 3.13867L16.1383 2.82279L16.7667 2.50691ZM8.65083 9.92962L6.77917 8.98869L5.84333 7.10683L4.9075 8.98869L3.03583 9.92962L4.9075 10.8705L5.84333 12.7524L6.77917 10.8705L8.65083 9.92962ZM5.84417 10.8781L5.53 10.2463L4.90167 9.93046L5.53 9.61458L5.84417 8.98282L6.15833 9.61458L6.78667 9.93046L6.15833 10.2463L5.84417 10.8781ZM20 12.4592V20H19.1667V12.4592C19.1667 11.9975 18.7925 11.6213 18.3333 11.6213C17.8742 11.6213 17.5 11.9975 17.5 12.4592V16.6485H16.6667V10.7834C16.6667 10.3217 16.2925 9.94554 15.8333 9.94554C15.3742 9.94554 15 10.3217 15 10.7834V16.6485H14.1667V9.94554C14.1667 9.48387 13.7925 9.10767 13.3333 9.10767C12.8742 9.10767 12.5 9.48387 12.5 9.94554V16.6485H11.6667V11.6213C11.6667 11.1596 11.2925 10.7834 10.8333 10.7834C10.3742 10.7834 10 11.1596 10 11.6213V17.7369L8.84083 16.279C8.40667 15.8467 7.69 15.7604 7.20417 16.1114C6.57583 16.5396 6.4975 17.5023 7.04083 18.0277L8.7275 20H7.63L6.43 18.5974C5.54833 17.7512 5.68833 16.1274 6.71667 15.4319C7.43 14.915 8.42583 14.9476 9.16667 15.4721V11.6213C9.16667 10.6971 9.91417 9.94554 10.8333 9.94554C11.1383 9.94554 11.4208 10.0344 11.6667 10.1785V9.94554C11.6667 9.02137 12.4142 8.26979 13.3333 8.26979C14.06 8.26979 14.6725 8.74235 14.9 9.39589C15.1667 9.21408 15.4875 9.10767 15.8333 9.10767C16.7525 9.10767 17.5 9.85924 17.5 10.7834V11.0163C17.7458 10.8722 18.0283 10.7834 18.3333 10.7834C19.2525 10.7834 20 11.535 20 12.4592ZM4.36917 18.3243C4.46583 18.62 4.59667 18.9007 4.76333 19.1621H0V6.17512C0 5.02053 0.935 4.08044 2.08333 4.08044H12.9167C14.065 4.08044 15 5.02053 15 6.17512V7.05907C14.7417 6.90742 14.4633 6.79011 14.1667 6.71303V6.17595C14.1667 5.48303 13.6058 4.91915 12.9167 4.91915H2.08333C1.39417 4.91915 0.833333 5.48303 0.833333 6.17595V18.3251L4.36917 18.3243Z" fill="#9D92CF"/>
</svg>
