<svg width="12" height="7" viewBox="0 0 12 7" fill="none" xmlns="http://www.w3.org/2000/svg">
<path d="M11.5276 0.34808C11.4173 0.23773 11.2863 0.150191 11.1422 0.0904658C10.9981 0.0307407 10.8436 0 10.6876 0C10.5316 0 10.3771 0.0307407 10.233 0.0904658C10.0889 0.150191 9.95792 0.23773 9.84764 0.34808L6.21706 3.97787C6.14283 4.05208 6.04217 4.09377 5.93721 4.09377C5.83224 4.09377 5.73158 4.05208 5.65735 3.97787L2.02756 0.34808C1.80489 0.125309 1.50285 0.000115755 1.18788 4.15246e-05C0.872909 -3.27062e-05 0.570809 0.125018 0.348038 0.347684C0.125267 0.57035 7.42685e-05 0.872391 3.30332e-08 1.18736C-7.42025e-05 1.50233 0.124976 1.80443 0.347642 2.02721L3.97823 5.65779C4.23552 5.91511 4.54099 6.11924 4.87718 6.2585C5.21338 6.39777 5.57371 6.46945 5.9376 6.46945C6.3015 6.46945 6.66183 6.39777 6.99802 6.2585C7.33421 6.11924 7.63968 5.91511 7.89698 5.65779L11.5276 2.02721C11.7502 1.80452 11.8752 1.50252 11.8752 1.18764C11.8752 0.87276 11.7502 0.570769 11.5276 0.34808Z" fill="white"/>
</svg>
