<svg width="27" height="20" viewBox="0 0 27 20" fill="none" xmlns="http://www.w3.org/2000/svg">
<path d="M25.3125 7.87498H1.6875C0.755525 7.87498 0 8.63051 0 9.56248C0 10.4945 0.755525 11.25 1.6875 11.25H25.3125C26.2445 11.25 27 10.4945 27 9.56248C27 8.63051 26.2445 7.87498 25.3125 7.87498Z" fill="white"/>
<path d="M1.6875 3.375H25.3125C26.2445 3.375 27 2.61947 27 1.6875C27 0.755525 26.2445 0 25.3125 0H1.6875C0.755525 0 0 0.755525 0 1.6875C0 2.61947 0.755525 3.375 1.6875 3.375Z" fill="white"/>
<path d="M25.3125 15.75H1.6875C0.755525 15.75 0 16.5055 0 17.4375C0 18.3694 0.755525 19.125 1.6875 19.125H25.3125C26.2445 19.125 27 18.3694 27 17.4375C27 16.5055 26.2445 15.75 25.3125 15.75Z" fill="white"/>
</svg>
